<?xml version="1.0" standalone="no"?>
<!DOCTYPE svg PUBLIC "-//W3C//DTD SVG 20010904//EN"
 "http://www.w3.org/TR/2001/REC-SVG-20010904/DTD/svg10.dtd">
<svg version="1.0" xmlns="http://www.w3.org/2000/svg"
 width="1280.000000pt" height="1280.000000pt" viewBox="0 0 1280.000000 1280.000000"
 preserveAspectRatio="xMidYMid meet">
<metadata>
Created by potrace 1.14, written by Peter Selinger 2001-2017
</metadata>
<g transform="translate(0.000000,1280.000000) scale(0.100000,-0.100000)"
fill="#000000" stroke="none">
<path d="M6265 12672 c-2 -2 -20 -4 -39 -4 l-36 0 5 -106 c3 -59 8 -159 10
-222 3 -63 7 -151 10 -195 2 -44 4 -90 4 -102 1 -22 4 -23 74 -18 39 2 89 4
110 5 l38 0 -5 123 c-15 317 -24 494 -25 513 -1 10 -136 15 -146 6z"/>
<path d="M7384 12478 c-3 -13 -58 -144 -120 -291 -63 -147 -114 -271 -114
-275 0 -7 157 -77 188 -84 8 -2 23 21 38 57 13 33 28 69 33 80 6 11 35 81 67
155 31 74 64 153 74 175 32 71 50 118 48 120 -10 9 -121 55 -131 55 -7 0 -17
4 -22 9 -6 5 -20 12 -32 15 -17 5 -23 2 -29 -16z"/>
<path d="M5183 12380 c-18 -11 -60 -33 -93 -51 -61 -32 -67 -38 -51 -54 5 -6
25 -39 44 -75 19 -36 53 -99 75 -140 21 -41 65 -121 96 -178 31 -56 56 -106
56 -110 0 -4 7 -15 14 -25 14 -18 19 -16 110 33 53 28 96 55 96 60 0 4 -7 13
-15 20 -9 7 -13 15 -10 18 3 3 1 10 -4 16 -9 11 -49 83 -110 199 -20 37 -43
80 -51 95 -8 15 -37 69 -64 120 -27 51 -52 92 -55 91 -3 0 -21 -9 -38 -19z"/>
<path d="M8349 11773 c-85 -74 -186 -163 -213 -188 -12 -11 -53 -47 -90 -80
-37 -33 -79 -70 -93 -83 l-26 -23 30 -32 c16 -18 50 -54 75 -81 l45 -49 89 79
c49 44 102 90 118 104 16 14 34 30 40 36 6 5 49 43 95 84 118 104 131 116 131
126 0 9 -14 27 -91 112 l-46 51 -64 -56z"/>
<path d="M4211 11557 c-33 -45 -61 -86 -61 -92 0 -5 17 -21 38 -35 20 -14 39
-27 42 -30 3 -3 82 -62 175 -130 94 -68 190 -139 214 -157 l43 -34 32 43 c17
24 36 49 42 55 7 7 22 29 35 49 20 33 20 37 6 45 -9 5 -22 15 -29 22 -8 6 -21
17 -30 22 -9 6 -108 78 -220 160 -112 83 -208 154 -214 158 -7 4 -36 -25 -73
-76z"/>
<path d="M6428 11515 c-1 -1 -50 -5 -108 -9 -58 -3 -116 -8 -130 -11 -58 -11
-177 -35 -197 -40 -129 -30 -431 -171 -518 -242 -5 -5 -26 -19 -45 -33 -216
-148 -439 -418 -562 -680 -52 -111 -125 -336 -126 -390 0 -8 -3 -25 -5 -37
-10 -39 -19 -147 -20 -213 0 -79 11 -239 18 -250 3 -4 7 -23 10 -41 20 -144
103 -355 189 -483 25 -38 45 -70 44 -71 -2 -1 -48 -19 -103 -39 -55 -21 -109
-41 -120 -46 -19 -8 -179 -71 -450 -175 -66 -26 -134 -53 -152 -61 -17 -8 -36
-14 -42 -14 -6 0 -19 -4 -29 -10 -9 -5 -132 -54 -272 -108 -140 -54 -264 -102
-275 -107 -11 -4 -25 -9 -30 -10 -11 -3 -121 -47 -190 -76 -11 -5 -51 -20 -90
-34 -38 -14 -79 -30 -90 -34 -31 -14 -139 -56 -145 -56 -3 0 -14 -6 -25 -12
-11 -6 -24 -12 -30 -13 -14 -3 -50 -17 -115 -43 -30 -12 -57 -22 -60 -22 -6
-1 -297 -113 -325 -126 -11 -5 -155 -61 -320 -124 -165 -63 -309 -119 -320
-125 -11 -5 -105 -41 -208 -81 -103 -40 -186 -76 -185 -80 2 -4 82 -74 178
-154 96 -81 198 -166 225 -190 28 -23 77 -65 110 -92 154 -128 451 -377 455
-382 3 -4 30 -26 60 -51 30 -25 66 -55 80 -66 14 -12 75 -63 135 -114 61 -51
111 -96 113 -100 2 -6 -26 -32 -133 -122 -22 -18 -51 -42 -64 -53 -33 -28 -97
-82 -161 -135 -53 -44 -100 -84 -190 -160 -25 -21 -90 -76 -145 -121 -55 -46
-105 -88 -111 -94 -6 -6 -30 -27 -54 -46 -23 -18 -52 -42 -63 -53 -12 -10 -42
-35 -67 -55 -25 -20 -47 -39 -50 -42 -3 -3 -39 -34 -80 -68 -41 -34 -97 -81
-124 -104 -27 -23 -64 -53 -82 -67 -18 -14 -32 -29 -30 -35 2 -8 63 -34 231
-99 11 -5 76 -30 145 -56 69 -27 260 -101 425 -165 165 -64 354 -137 420 -162
66 -25 125 -49 130 -55 7 -6 10 -579 11 -1678 0 -919 2 -1671 5 -1673 4 -4 89
-37 414 -164 77 -30 154 -61 172 -69 17 -8 34 -14 38 -14 4 0 21 -6 38 -14 18
-8 127 -51 242 -96 245 -96 368 -144 410 -161 17 -7 32 -13 35 -13 3 -1 75
-29 160 -63 85 -34 250 -98 365 -143 217 -84 240 -93 278 -110 12 -5 85 -34
162 -64 77 -29 214 -83 305 -119 299 -118 503 -198 635 -249 72 -27 145 -56
162 -64 18 -8 50 -21 70 -29 21 -7 62 -23 91 -34 38 -14 60 -17 75 -11 12 5
114 45 227 89 309 120 593 230 615 241 11 5 103 41 205 81 551 214 647 252
672 265 14 8 31 14 38 14 13 0 65 21 113 46 16 8 37 14 48 14 10 0 19 5 19 10
0 6 3 9 8 8 7 -3 174 60 249 93 23 11 46 19 52 19 5 0 22 7 38 14 15 8 89 38
163 67 74 28 154 60 177 70 24 10 46 19 49 19 7 0 318 122 369 144 17 8 48 19
70 26 22 7 45 16 50 20 6 3 33 15 60 24 28 10 68 26 90 35 22 10 97 39 167 66
101 38 127 52 130 69 1 12 3 766 3 1677 l0 1657 135 52 c74 28 144 55 155 60
11 5 74 30 140 55 66 26 136 53 155 60 159 63 432 168 440 170 3 1 16 6 30 12
75 32 291 113 300 113 17 0 11 19 -11 38 -12 9 -26 22 -33 27 -6 6 -38 33 -71
60 -33 28 -71 60 -85 71 -21 18 -253 214 -315 266 -11 9 -56 46 -100 83 -44
37 -104 88 -133 113 -29 25 -65 54 -80 66 -15 11 -29 23 -32 26 -3 3 -88 75
-190 160 -102 85 -187 157 -190 160 -3 3 -29 25 -58 49 -29 24 -52 47 -50 51
2 4 48 45 103 91 55 46 102 86 105 89 3 3 30 25 60 50 30 25 57 47 60 50 3 3
46 39 95 80 50 41 96 81 104 88 8 8 46 39 85 70 38 31 77 64 86 72 9 8 38 34
65 57 28 23 175 146 328 274 l277 233 -47 19 c-27 10 -75 29 -108 41 -138 53
-381 147 -400 155 -11 5 -58 23 -105 41 -111 42 -130 49 -163 66 -16 8 -33 14
-38 14 -7 0 -290 108 -364 140 -11 4 -58 22 -105 40 -47 18 -94 36 -105 41
-11 4 -85 34 -165 64 -80 31 -221 86 -315 123 -93 36 -172 67 -175 67 -3 0
-32 11 -65 24 -33 13 -80 31 -105 41 -38 15 -312 121 -620 241 -47 18 -87 34
-90 34 -3 1 -18 7 -35 14 -34 14 -128 51 -225 88 -82 31 -148 57 -180 70 -14
6 -52 20 -84 32 -33 12 -63 24 -68 27 -4 3 16 40 45 82 67 97 140 263 172 392
120 484 8 968 -323 1395 -45 58 -170 185 -231 235 -24 19 -53 43 -64 53 -38
33 -179 122 -257 163 -65 34 -110 54 -205 90 -60 22 -210 62 -261 69 -26 3
-51 8 -54 10 -4 2 -54 7 -111 10 -57 4 -109 8 -116 10 -6 2 -13 2 -15 0z"/>
<path d="M9019 10780 c-9 -5 -30 -12 -47 -15 -18 -3 -52 -12 -76 -20 -24 -8
-77 -24 -118 -34 -97 -25 -349 -99 -354 -103 -2 -2 1 -22 7 -44 6 -21 10 -39
9 -39 -1 0 4 -13 10 -30 7 -16 14 -41 16 -54 10 -48 3 -48 149 -6 50 14 114
33 143 41 29 7 107 30 173 49 67 19 126 35 132 35 36 1 37 16 7 119 -16 57
-31 105 -32 107 -2 1 -10 -1 -19 -6z"/>
<path d="M3730 10468 c-7 -40 -12 -74 -12 -75 0 -2 -3 -16 -8 -32 -7 -26 -5
-30 18 -37 15 -4 34 -9 42 -10 8 -1 103 -18 210 -39 107 -20 206 -38 220 -41
14 -2 47 -9 73 -14 65 -14 65 -14 71 18 14 63 17 79 23 112 12 73 12 72 -47
85 -62 13 -237 47 -260 50 -8 1 -28 5 -45 8 -16 4 -46 9 -65 12 -19 3 -51 10
-70 15 -19 4 -58 11 -86 15 l-51 6 -13 -73z"/>
<path d="M8501 9645 c-7 -30 -12 -57 -13 -60 0 -2 -6 -27 -13 -55 -11 -43 -11
-50 1 -51 16 -2 33 -6 37 -9 1 -1 11 -3 22 -5 43 -6 85 -16 108 -24 13 -5 41
-12 63 -15 21 -4 102 -22 179 -40 77 -19 156 -37 176 -41 l37 -7 8 44 c10 54
8 44 23 105 15 60 12 68 -26 76 -40 9 -274 62 -313 72 -8 2 -56 13 -106 24
-50 11 -97 22 -105 25 -63 20 -65 19 -78 -39z"/>
<path d="M4275 9469 c-38 -10 -86 -23 -105 -29 -19 -5 -120 -33 -225 -60 -104
-28 -193 -54 -197 -58 -4 -4 -3 -23 3 -42 5 -19 12 -44 14 -55 3 -11 11 -40
18 -65 15 -51 12 -50 117 -20 36 10 164 44 285 76 121 31 223 60 227 63 11 9
-44 211 -56 210 -6 0 -42 -9 -81 -20z"/>
</g>
</svg>
